<svg width="718" height="109" viewBox="0 0 718 109" fill="none" xmlns="http://www.w3.org/2000/svg">
<g clip-path="url(#clip0_1_5)">
<path d="M79.8005 92.016L27.1925 57.552C25.2725 56.304 24.6965 55.152 24.6965 54C24.6965 52.752 25.4645 51.504 27.1925 50.352L77.4965 17.232L82.2005 24.432L37.5605 53.904L84.4085 84.72L79.8005 92.016ZM16.1525 90H7.4165V19.248H16.1525V90ZM101.374 90H92.5415V19.248H101.374V90ZM203.54 92.016L161.492 64.56L166.196 57.36L208.244 84.72L203.54 92.016ZM206.132 56.784H197.396V44.4C197.396 29.136 196.34 27.12 167.06 27.12H153.332C123.956 27.12 122.9 29.136 122.9 44.4V64.944C122.9 80.112 123.956 82.224 153.332 82.224H159.476V91.056H153.332C117.332 91.056 114.164 86.16 114.164 64.944V44.4C114.164 23.184 117.332 18.288 153.332 18.288H167.06C202.964 18.288 206.132 23.184 206.132 44.4V56.784ZM299.95 66.576V70.896C299.95 86.832 294.67 91.056 265.774 91.056H251.182C222.862 91.056 217.102 86.928 217.102 69.744V67.344H225.838V69.552C225.838 80.592 229.582 82.224 250.894 82.224H265.582C287.566 82.224 291.214 80.592 291.214 71.184V67.344C291.214 60.816 288.334 59.28 274.318 59.28C266.542 59.28 254.734 59.76 246.478 59.76C229.102 59.76 217.678 57.648 217.678 41.424V37.392C217.678 22.32 223.534 18.288 251.374 18.288H265.198C292.078 18.288 299.758 21.744 299.758 36.048V38.064H291.022V36.816C291.022 28.656 285.166 27.12 265.39 27.12H250.894C230.35 27.12 226.414 28.656 226.414 37.392V41.328C226.414 48.72 229.486 51.024 246.67 51.024C255.31 51.024 271.822 50.448 277.87 50.448C290.062 50.448 299.95 52.752 299.95 66.576ZM383.51 27.984H308.054V19.248H383.51V27.984ZM350.006 90H341.27V37.488H350.006V90ZM471.25 64.944V19.248H479.986V64.944C479.986 86.16 476.818 91.056 440.818 91.056H431.698C395.794 91.056 392.626 86.16 392.626 64.944V19.248H401.362V64.944C401.362 80.112 402.322 82.224 431.698 82.224H440.818C470.194 82.224 471.25 80.112 471.25 64.944ZM546.496 90H498.208C495.232 90 493.792 88.464 493.792 85.488V23.664C493.792 20.688 495.232 19.248 498.208 19.248H546.496C582.496 19.248 585.664 24.144 585.664 45.36V63.888C585.664 85.104 582.496 90 546.496 90ZM576.928 63.888V45.36C576.928 30.192 575.872 27.984 546.496 27.984H502.624V81.168H546.496C575.872 81.168 576.928 79.152 576.928 63.888ZM607.249 90H598.417V19.248H607.249V90ZM672.935 91.056H659.207C623.207 91.056 620.039 86.16 620.039 64.944V44.4C620.039 23.184 623.207 18.288 659.207 18.288H672.935C708.839 18.288 712.007 23.184 712.007 44.4V64.944C712.007 86.16 708.839 91.056 672.935 91.056ZM703.271 64.944V44.4C703.271 29.136 702.215 27.12 672.935 27.12H659.207C629.831 27.12 628.775 29.136 628.775 44.4V64.944C628.775 80.112 629.831 82.224 659.207 82.224H672.935C702.215 82.224 703.271 80.112 703.271 64.944Z" fill="#969193"/>
</g>
<defs>
<clipPath id="clip0_1_5">
<rect width="718" height="109" fill="white"/>
</clipPath>
</defs>
</svg>
